<svg
          width="2560"
          height="690"
          viewBox="0 0 2560 690"
          fill="none"
          xmlns="http://www.w3.org/2000/svg">
          <path
            d="M527.216 101.644C286.545 78.7554 94.5924 34.2534 -38.46 0.440552L-47.1515 639.381C681.489 670.795 1144.29 652.088 1557.37 538.696C1887.83 447.983 2682.96 539.673 3039.21 596.857L3131.52 354.59C3107.28 347.093 2952.62 301.352 2527.86 178.363C2103.09 55.3744 1563.22 71.3994 1346.38 94.7855C848.434 124.515 699.009 117.982 527.216 101.644Z"
            fill="#3AA6F2"
          />
          <path
            d="M524 137C283.04 117.387 90.5 75.5 -43 43.5V682.5C686 704 1148.5 679 1560 560C1889.2 464.8 2685.5 545.667 3042.5 598L3131.5 354.5C3107.17 347.333 2951.9 303.7 2525.5 186.5C2099.1 69.3 1559.5 92.6667 1343 119C845.5 155.5 696 151 524 137Z"
            fill="#0190F5"
          />
        </svg>